<?xml version="1.0" encoding="UTF-8" standalone="no"?>
<!-- Created with Inkscape (http://www.inkscape.org/) -->

<svg
   version="1.0"
   width="166.15625"
   height="166.1875"
   id="svg2424"
   sodipodi:docname="arch.svg"
   inkscape:version="1.2.2 (b0a8486541, 2022-12-01)"
   xmlns:inkscape="http://www.inkscape.org/namespaces/inkscape"
   xmlns:sodipodi="http://sodipodi.sourceforge.net/DTD/sodipodi-0.dtd"
   xmlns:xlink="http://www.w3.org/1999/xlink"
   xmlns="http://www.w3.org/2000/svg"
   xmlns:svg="http://www.w3.org/2000/svg">
  <sodipodi:namedview
     id="namedview103"
     pagecolor="#ffffff"
     bordercolor="#000000"
     borderopacity="0.25"
     inkscape:showpageshadow="2"
     inkscape:pageopacity="0.0"
     inkscape:pagecheckerboard="0"
     inkscape:deskcolor="#d1d1d1"
     showgrid="false"
     inkscape:zoom="1.9064164"
     inkscape:cx="282.72942"
     inkscape:cy="75.272118"
     inkscape:window-width="1869"
     inkscape:window-height="1013"
     inkscape:window-x="9"
     inkscape:window-y="9"
     inkscape:window-maximized="1"
     inkscape:current-layer="svg2424" />
  <defs
     id="defs2426">
    <linearGradient
       x1="112.49854"
       y1="6.1372099"
       x2="112.49853"
       y2="129.3468"
       id="path1082_2_"
       gradientUnits="userSpaceOnUse"
       gradientTransform="translate(287,-83)">
      <stop
         id="stop193"
         style="stop-color:#ffffff;stop-opacity:0"
         offset="0" />
      <stop
         id="stop195"
         style="stop-color:#ffffff;stop-opacity:0.27450982"
         offset="1" />
      <midPointStop
         offset="0"
         style="stop-color:#FFFFFF"
         id="midPointStop197" />
      <midPointStop
         offset="0.5"
         style="stop-color:#FFFFFF"
         id="midPointStop199" />
      <midPointStop
         offset="1"
         style="stop-color:#000000"
         id="midPointStop201" />
    </linearGradient>
    <linearGradient
       x1="541.33502"
       y1="104.50665"
       x2="606.91248"
       y2="303.14029"
       id="linearGradient2544"
       xlink:href="#path1082_2_"
       gradientUnits="userSpaceOnUse"
       gradientTransform="matrix(-0.3937741,0,0,0.393752,357.51969,122.00151)" />
    <linearGradient
       id="linearGradient3388">
      <stop
         id="stop3390"
         style="stop-color:#000000;stop-opacity:0"
         offset="0" />
      <stop
         id="stop3392"
         style="stop-color:#000000;stop-opacity:0.37113401"
         offset="1" />
    </linearGradient>
    <linearGradient
       x1="490.72305"
       y1="237.72447"
       x2="490.72305"
       y2="183.9644"
       id="linearGradient4416"
       xlink:href="#linearGradient3388"
       gradientUnits="userSpaceOnUse"
       gradientTransform="matrix(0.749107,0,0,0.749107,-35.459862,91.44108)" />
  </defs>
  <path
     d="M 83.062503,0 C 75.66563,18.135158 71.204196,29.997682 62.96875,47.59375 68.01811,52.94607 74.215961,59.179114 84.281253,66.21875 73.460077,61.765904 66.078713,57.295352 60.5625,52.65625 50.0227,74.649163 33.509864,105.97709 0,166.1875 26.337628,150.98233 46.754089,141.60818 65.78125,138.03125 64.964216,134.5172 64.4997,130.71607 64.53125,126.75 l 0.03125,-0.84375 c 0.417917,-16.87382 9.195665,-29.849788 19.593753,-28.968748 10.39809,0.88104 18.480407,15.282418 18.062497,32.156248 -0.0786,3.17512 -0.43674,6.22955 -1.0625,9.0625 18.82058,3.68164 39.01873,13.03179 65,28.03125 -5.123,-9.4318 -9.69572,-17.93388 -14.0625,-26.03125 -6.87839,-5.33121 -14.05289,-12.2698 -28.6875,-19.78125 10.05899,2.61375 17.2611,5.62932 22.875,9 C 101.88297,46.713161 98.287663,35.729109 83.062503,0 Z"
     id="path2518"
     style="fill:#1793d1;fill-opacity:1;fill-rule:evenodd;stroke:none" />
</svg>
