<?xml version="1.0" encoding="UTF-8" standalone="no"?>
<svg
   width="89.164162"
   height="93.939491"
   viewBox="0 0 23.591351 24.854824"
   version="1.1"
   id="svg52"
   sodipodi:docname="fedora.svg"
   inkscape:version="1.2.2 (b0a8486541, 2022-12-01)"
   xmlns:inkscape="http://www.inkscape.org/namespaces/inkscape"
   xmlns:sodipodi="http://sodipodi.sourceforge.net/DTD/sodipodi-0.dtd"
   xmlns="http://www.w3.org/2000/svg"
   xmlns:svg="http://www.w3.org/2000/svg">
  <defs
     id="defs56" />
  <sodipodi:namedview
     id="namedview54"
     pagecolor="#ffffff"
     bordercolor="#000000"
     borderopacity="0.25"
     inkscape:showpageshadow="2"
     inkscape:pageopacity="0.0"
     inkscape:pagecheckerboard="0"
     inkscape:deskcolor="#d1d1d1"
     showgrid="false"
     inkscape:zoom="2.4411059"
     inkscape:cx="185.98128"
     inkscape:cy="43.627767"
     inkscape:window-width="1869"
     inkscape:window-height="1013"
     inkscape:window-x="9"
     inkscape:window-y="9"
     inkscape:window-maximized="1"
     inkscape:current-layer="svg52" />
  <g
     id="g50"
     transform="translate(-6.117581,-7.835345)">
    <path
       fill="#ffffff"
       d="m 23.372364,7.835345 c -3.028987,0 -5.704663,2.236586 -6.075082,5.170741 -0.0249,0.245618 -0.03219,0.422251 -0.03359,0.644922 l 0.0036,11.996684 c 0,2.301235 -1.756209,3.867465 -3.950663,3.867465 -2.197484,0 -3.967716,-1.722149 -3.967716,-3.871082 0.03604,-2.359086 1.961319,-3.855522 4.206978,-3.920691 h 0.01188 l 2.279965,-0.02066 v -3.16725 l -2.279965,0.01654 c -4.087331,-0.03604 -7.331689,3.103025 -7.45019,7.093624 0,3.880591 3.251028,7.044531 7.198008,7.044531 3.723171,0 6.821405,-2.852806 7.15977,-6.422347 0.04877,-1.215007 0.02532,-2.818432 0.02532,-2.818432 0.0068,-0.66023 -0.0105,-0.42328 -0.0036,-1.734261 l 2.827734,-0.02016 c 2.188181,0.01519 2.163443,-3.217921 -0.02532,-3.17345 l -2.80293,0.02066 c 0,-1.627346 0.02609,-3.244826 0,-4.874638 0.0019,-1.409608 1.362887,-2.655134 2.873208,-2.655134 1.510702,0 3.108854,0.739495 3.108854,2.655134 0,0.27369 -0.0057,0.43294 -0.02119,0.534336 -0.168616,0.888402 0.450459,1.737858 1.362189,1.866035 0.911733,0.126699 1.748824,-0.519356 1.839166,-1.418 0.05223,-0.355248 0.05013,-0.66852 0.05013,-0.981853 0,-3.377975 -3.07825,-5.826519 -6.338631,-5.826519 z"
       id="path48"
       style="display:inline" />
  </g>
</svg>
